<svg width="28" height="33" viewBox="0 0 28 33" fill="none" xmlns="http://www.w3.org/2000/svg">
<path d="M14.411 31.4291L13.9439 30.545L13.9439 30.545L14.411 31.4291ZM13.5811 31.4291L13.114 32.3133L13.114 32.3133L13.5811 31.4291ZM25.4961 14.6287C25.4961 19.2106 23.1983 22.8877 20.55 25.6054C17.9019 28.3228 14.982 29.9965 13.9439 30.545L14.8782 32.3133C16.007 31.717 19.1297 29.9287 21.9824 27.0012C24.8348 24.074 27.4961 19.9233 27.4961 14.6287H25.4961ZM13.9961 2.39746C20.2946 2.39746 25.4961 7.81924 25.4961 14.6287H27.4961C27.4961 6.82332 21.5047 0.397461 13.9961 0.397461V2.39746ZM2.49609 14.6287C2.49609 7.81924 7.69762 2.39746 13.9961 2.39746V0.397461C6.48745 0.397461 0.496094 6.82332 0.496094 14.6287H2.49609ZM14.0483 30.545C13.0101 29.9965 10.0902 28.3228 7.44219 25.6054C4.79386 22.8877 2.49609 19.2106 2.49609 14.6287H0.496094C0.496094 19.9233 3.15735 24.074 6.0098 27.0012C8.86252 29.9286 11.9852 31.717 13.114 32.3133L14.0483 30.545ZM13.9439 30.545C13.9506 30.5414 13.9693 30.5342 13.9961 30.5342C14.0229 30.5342 14.0416 30.5414 14.0483 30.545L13.114 32.3133C13.6715 32.6079 14.3207 32.6079 14.8782 32.3133L13.9439 30.545ZM18.3532 14.6288C18.3532 17.2626 16.3497 19.2993 13.9961 19.2993V21.2993C17.5598 21.2993 20.3532 18.2585 20.3532 14.6288H18.3532ZM13.9961 9.95829C16.3497 9.95829 18.3532 11.995 18.3532 14.6288H20.3532C20.3532 10.9991 17.5598 7.95829 13.9961 7.95829V9.95829ZM9.63894 14.6288C9.63894 11.995 11.6425 9.95829 13.9961 9.95829V7.95829C10.4323 7.95829 7.63894 10.9991 7.63894 14.6288H9.63894ZM13.9961 19.2993C11.6425 19.2993 9.63894 17.2626 9.63894 14.6288H7.63894C7.63894 18.2585 10.4323 21.2993 13.9961 21.2993V19.2993Z" fill="white"/>
</svg>
