<svg width="38" height="35" viewBox="0 0 38 35" fill="none" xmlns="http://www.w3.org/2000/svg">
<g filter="url(#filter0_d_1768_4)">
<path d="M23.3351 2C20.7749 2 18.3177 3.19183 16.7139 5.0752C15.1101 3.19183 12.6529 2 10.0926 2C5.56076 2 2 5.56076 2 10.0926C2 15.6545 7.00272 20.1864 14.5804 27.0725L16.7139 29L18.8474 27.0578C26.4251 20.1864 31.4278 15.6545 31.4278 10.0926C31.4278 5.56076 27.867 2 23.3351 2ZM16.861 24.8801L16.7139 25.0272L16.5668 24.8801C9.56294 18.5384 4.94278 14.345 4.94278 10.0926C4.94278 7.14986 7.14986 4.94278 10.0926 4.94278C12.3586 4.94278 14.5657 6.39946 15.3455 8.41526H18.097C18.8621 6.39946 21.0692 4.94278 23.3351 4.94278C26.2779 4.94278 28.485 7.14986 28.485 10.0926C28.485 14.345 23.8648 18.5384 16.861 24.8801Z" fill="white"/>
</g>
<path d="M8.86178 6.66717C8.49084 6.90719 8.17629 7.16911 8.06491 7.59233C8.00689 7.81282 8.01613 8.04838 8.01613 8.27535C8.01613 8.48841 8.07057 8.67129 7.9059 8.79937C7.76741 8.90708 7.59422 8.6709 7.42345 8.6512C7.31029 8.63814 7.31138 8.39253 7.23372 8.51387C7.05506 8.79303 7.04771 9.16682 7.04038 9.48962C7.03636 9.66624 6.97728 9.85361 7.00966 10.0317C7.03699 10.182 7.13795 10.3056 7.13795 10.4726C7.13795 10.6149 7.24839 10.7508 7.26624 10.8936C7.28937 11.0786 7.3399 11.2698 7.39092 11.4483C7.46599 11.7111 7.44059 12.1037 7.63305 12.3193C7.79232 12.4977 7.82501 12.709 7.9041 12.9319C8.02264 13.2659 8.19987 13.5643 8.28355 13.913C8.31917 14.0614 8.3909 14.2211 8.45702 14.3593C8.62027 14.7007 8.86149 15.084 9.10752 15.3694C9.34375 15.6434 9.55681 15.9278 9.77971 16.2115C10.3147 16.8923 10.6022 17.6938 10.9831 18.4557C11.1705 18.8305 11.3618 19.2147 11.6138 19.5507C11.7728 19.7628 11.9611 19.9287 12.1468 20.1145C12.3681 20.3358 12.6134 20.5117 12.8371 20.7252C13.2256 21.0961 13.6833 21.3173 14.12 21.616C14.2996 21.7389 14.4894 21.8332 14.6838 21.9286C14.8545 22.0125 15.0005 22.1287 15.168 22.2141C15.4061 22.3355 15.6655 22.4883 15.9052 22.5755C15.9882 22.6057 16.0529 22.6695 16.1474 22.6695C16.3637 22.6695 16.6188 22.3744 16.7581 22.2394C17.1549 21.8548 17.5607 21.4838 17.9525 21.092C18.2115 20.833 18.5021 20.5978 18.8217 20.418C19.2903 20.1544 19.6438 19.7664 20.054 19.4314C20.6092 18.978 21.1662 18.5322 21.6911 18.0437C22.1571 17.61 22.6063 17.1161 22.9523 16.5837C23.1137 16.3355 23.356 16.1328 23.5378 15.897C23.7998 15.5573 24.0705 15.2257 24.3365 14.8888C24.768 14.3419 25.3261 13.7566 25.5796 13.0945C25.744 12.6653 25.8782 12.2251 26.0422 11.7917C26.4551 10.7004 26.4962 9.50173 26.4 8.34763C26.3466 7.70705 26.1576 6.89659 25.6429 6.45757C25.5417 6.37123 25.3574 6.16398 25.2255 6.13954C24.9098 6.08109 24.5797 6.07353 24.2606 6.04197C24.0887 6.02497 23.924 6.01667 23.751 6.01667C23.5254 6.01667 23.2002 5.95625 22.9939 6.06546C22.5544 6.29814 22.1037 6.50341 21.6622 6.73222C20.9944 7.07826 20.3851 7.58819 19.7667 8.01515C19.2378 8.38032 18.7084 8.72771 18.1314 9.0162C17.8116 9.17612 17.4432 9.1716 17.0888 9.1716C16.8751 9.1716 16.7014 9.09987 16.5015 9.03427C16.1443 8.917 15.6666 8.85332 15.3487 8.64397C14.9458 8.37863 14.5376 8.15869 14.0911 7.97179C13.9956 7.93181 13.9069 7.88069 13.8128 7.83807C13.6823 7.77898 13.5185 7.7735 13.3972 7.70075C13.2413 7.60718 12.9932 7.59148 12.8624 7.4803C12.6137 7.26891 12.4215 7.02256 12.0926 6.91292C11.8208 6.82233 11.3439 6.67182 11.1241 6.91653C10.9541 7.10573 10.8697 7.15505 10.6344 7.15505C10.4959 7.15505 10.478 7.5311 10.47 7.6104C10.418 8.12326 10.6087 8.54826 10.7157 9.03427C10.8239 9.52568 10.8843 10.0236 11.0048 10.5124C11.1077 10.9294 11.1852 11.3599 11.2361 11.7862C11.2746 12.1087 11.2922 12.4505 11.3807 12.7638C11.5241 13.272 11.7366 13.7584 11.8794 14.2672C12.0183 14.7624 12.1051 15.2539 12.4233 15.673C12.6902 16.0246 13.0389 16.3136 13.2798 16.6813C13.6006 17.171 13.7123 17.6574 14.3585 17.7329C14.7068 17.7736 15.0735 17.7212 15.4174 17.657C15.8065 17.5844 16.2117 17.5123 16.5214 17.2468C16.7053 17.0892 16.932 16.9941 17.0978 16.8114C17.7051 16.1423 18.2175 15.3968 18.8253 14.7298C19.2487 14.2651 19.7424 13.8847 20.1949 13.4504C20.5677 13.0928 20.9139 12.7028 21.3008 12.3609C21.8148 11.9066 22.4097 11.3942 22.5078 10.6714C22.545 10.3972 22.5382 10.097 22.4753 9.82752C22.4472 9.70694 22.4248 9.72452 22.3091 9.72452C21.5135 9.72452 20.7739 9.79574 20.0179 10.0715C18.5708 10.5992 17.1956 11.312 15.9125 12.1603C15.5541 12.3972 15.326 12.6772 15.0975 13.0348C15.0302 13.1402 15.0954 13.2946 15.0397 13.3782C15.0104 13.4221 14.9999 13.2803 14.9837 13.23C14.8632 12.8556 14.6927 12.5002 14.5573 12.1314C14.3972 11.6954 14.4787 11.1459 14.2031 10.7545C14.1185 10.6343 13.9636 10.5476 13.8453 10.469C13.437 10.1974 13.0002 9.98558 12.5696 9.75344C12.19 9.54874 11.9645 9.20991 11.7059 8.87887C11.5487 8.67768 11.3474 8.52771 11.153 8.3657C10.9913 8.23095 10.8992 8.09341 11.0012 8.46689C11.4132 9.9758 12.4597 11.0753 13.3538 12.3085C13.6865 12.7672 13.9617 13.2565 14.2609 13.7359C14.3439 13.869 14.445 13.9688 14.5591 14.0738C14.7345 14.2354 14.8937 14.4538 15.0813 14.596C15.2277 14.7071 15.2099 14.7046 15.2367 14.5708" stroke="white" stroke-width="5" stroke-linecap="round"/>
<defs>
<filter id="filter0_d_1768_4" x="0" y="0" width="37.4278" height="35" filterUnits="userSpaceOnUse" color-interpolation-filters="sRGB">
<feFlood flood-opacity="0" result="BackgroundImageFix"/>
<feColorMatrix in="SourceAlpha" type="matrix" values="0 0 0 0 0 0 0 0 0 0 0 0 0 0 0 0 0 0 127 0" result="hardAlpha"/>
<feOffset dx="2" dy="2"/>
<feGaussianBlur stdDeviation="2"/>
<feComposite in2="hardAlpha" operator="out"/>
<feColorMatrix type="matrix" values="0 0 0 0 0 0 0 0 0 0 0 0 0 0 0 0 0 0 1 0"/>
<feBlend mode="normal" in2="BackgroundImageFix" result="effect1_dropShadow_1768_4"/>
<feBlend mode="normal" in="SourceGraphic" in2="effect1_dropShadow_1768_4" result="shape"/>
</filter>
</defs>
</svg>
