<svg width="37" height="36" viewBox="0 0 37 36" fill="none" xmlns="http://www.w3.org/2000/svg">
<g filter="url(#filter0_d_481_833)">
<path d="M21.0001 12.482H24.0001V11.482C24.001 11.2845 24.0604 11.0918 24.1708 10.9281C24.2811 10.7644 24.4374 10.637 24.6201 10.562C24.8022 10.4854 25.0029 10.4644 25.1969 10.5018C25.3909 10.5392 25.5694 10.6332 25.7101 10.772L29.7101 14.772C29.8038 14.8649 29.8782 14.9755 29.929 15.0974C29.9797 15.2192 30.0059 15.3499 30.0059 15.482C30.0059 15.614 29.9797 15.7447 29.929 15.8665C29.8782 15.9884 29.8038 16.099 29.7101 16.192L25.7101 20.1919C25.6166 20.2846 25.5058 20.358 25.384 20.4077C25.2621 20.4575 25.1317 20.4827 25.0001 20.482C24.8689 20.4853 24.7387 20.4579 24.6201 20.402C24.4374 20.3269 24.2811 20.1995 24.1708 20.0358C24.0604 19.8721 24.001 19.6794 24.0001 19.482V18.482H21.0001C20.7348 18.482 20.4805 18.3766 20.293 18.1891C20.1054 18.0015 20.0001 17.7472 20.0001 17.482V13.482C20.0001 13.2167 20.1054 12.9624 20.293 12.7748C20.4805 12.5873 20.7348 12.482 21.0001 12.482Z" fill="white"/>
<path d="M12 29.0019C12.3989 29.0028 12.7889 28.8844 13.12 28.6619C13.3914 28.4785 13.6136 28.2312 13.7671 27.9417C13.9205 27.6523 14.0005 27.3295 14 27.0019V4.00194C14.0003 3.67519 13.9206 3.35334 13.7677 3.06453C13.6149 2.77573 13.3936 2.52877 13.1233 2.34525C12.853 2.16173 12.5418 2.04724 12.2169 2.0118C11.8921 1.97636 11.5636 2.02104 11.26 2.14194L3.26 5.34194C2.89413 5.48757 2.5794 5.73796 2.35525 6.06173C2.1311 6.38549 2.00752 6.76822 2 7.16194V23.8019C1.99961 24.2025 2.11951 24.5939 2.34416 24.9256C2.56881 25.2572 2.88787 25.5137 3.26 25.6619L11.26 28.8619C11.4949 28.9573 11.7465 29.0048 12 29.0019ZM12 4.00194V27.0119L4 23.8019V7.16194L12 4.00194Z" fill="white"/>
<path d="M10 18.4819C10.2652 18.4819 10.5196 18.3766 10.7071 18.189C10.8946 18.0015 11 17.7471 11 17.4819V13.4819C11 13.2167 10.8946 12.9624 10.7071 12.7748C10.5196 12.5873 10.2652 12.4819 10 12.4819C9.73478 12.4819 9.48043 12.5873 9.29289 12.7748C9.10536 12.9624 9 13.2167 9 13.4819V17.4819C9 17.7471 9.10536 18.0015 9.29289 18.189C9.48043 18.3766 9.73478 18.4819 10 18.4819Z" fill="white"/>
<path d="M13 4.48193H17C17.5304 4.48193 18.0391 4.69265 18.4142 5.06772C18.7893 5.44279 19 5.9515 19 6.48193V25.4819C19 26.0124 18.7893 26.5211 18.4142 26.8961C18.0391 27.2712 17.5304 27.4819 17 27.4819H13C12.7348 27.4819 12.4804 27.3766 12.2929 27.189C12.1054 27.0015 12 26.7472 12 26.4819V5.48193C12 5.21672 12.1054 4.96236 12.2929 4.77483C12.4804 4.58729 12.7348 4.48193 13 4.48193Z" fill="white"/>
<path d="M12.0001 23.482C5.17014 23.232 4.00014 18.482 4.00014 16.812L3.00014 23.812C2.99994 24.0122 3.05989 24.208 3.17222 24.3738C3.28454 24.5396 3.44407 24.6678 3.63014 24.742L12.1601 28.212L12.3901 24.712L12.0001 23.482Z" fill="white"/>
</g>
<defs>
<filter id="filter0_d_481_833" x="0" y="0" width="36.0059" height="35.0021" filterUnits="userSpaceOnUse" color-interpolation-filters="sRGB">
<feFlood flood-opacity="0" result="BackgroundImageFix"/>
<feColorMatrix in="SourceAlpha" type="matrix" values="0 0 0 0 0 0 0 0 0 0 0 0 0 0 0 0 0 0 127 0" result="hardAlpha"/>
<feOffset dx="2" dy="2"/>
<feGaussianBlur stdDeviation="2"/>
<feComposite in2="hardAlpha" operator="out"/>
<feColorMatrix type="matrix" values="0 0 0 0 0 0 0 0 0 0 0 0 0 0 0 0 0 0 1 0"/>
<feBlend mode="normal" in2="BackgroundImageFix" result="effect1_dropShadow_481_833"/>
<feBlend mode="normal" in="SourceGraphic" in2="effect1_dropShadow_481_833" result="shape"/>
</filter>
</defs>
</svg>
