<svg width="737" height="79" viewBox="0 0 737 79" fill="none" xmlns="http://www.w3.org/2000/svg">
<g filter="url(#filter0_d_191_6649)">
<path d="M3.64894 3.19043C7.01399 13.6969 8.64438 16.5246 21.461 20.2228C62.527 32.0724 107.545 33.0376 149.855 36.1383C168.038 37.4708 186.246 38.3401 204.445 39.3842C215.133 39.9974 226.256 40.2035 236.78 42.316C240.143 42.991 244.884 44.2838 246.718 47.6561C249.007 51.8619 242.691 55.6167 240 57.1495C226.275 64.964 211.459 65.1448 196.117 64.3394C183.85 63.6955 168.994 62.3109 158.253 55.7185C155.048 53.7513 151.859 50.3588 151.464 46.3996C151.002 41.7632 156.68 39.6394 160.073 38.372C179.179 31.2357 201.726 30.8167 221.838 31.3218C249.3 32.0114 277.061 38.4174 303.479 45.5619C327.708 52.1147 351.479 60.489 376.057 65.7355C401.167 71.0955 427.57 72.4861 453.149 70.552C465.246 69.6373 488.553 67.0904 492.167 52.2632C495.296 39.4301 471.853 33.0353 464.172 30.3445C451.31 25.8385 435.349 20.1018 421.374 22.0377C419.134 22.3481 415.523 23.9409 419.24 26.1562C427.598 31.1381 440.709 31.1219 449.964 31.8104C468.204 33.1673 486.557 33.3716 504.835 33.5555C538.897 33.8982 573.01 33.8126 607.053 32.5433C628.951 31.7269 651.036 30.5153 672.667 26.7844C684.158 24.8025 697.906 21.5704 708.851 17.0816C733.83 6.83789 708.834 15.4266 729.918 4.44692" stroke="white" stroke-width="2" stroke-linecap="round" shape-rendering="crispEdges"/>
</g>
<defs>
<filter id="filter0_d_191_6649" x="0.648666" y="0.190155" width="736.269" height="78.1905" filterUnits="userSpaceOnUse" color-interpolation-filters="sRGB">
<feFlood flood-opacity="0" result="BackgroundImageFix"/>
<feColorMatrix in="SourceAlpha" type="matrix" values="0 0 0 0 0 0 0 0 0 0 0 0 0 0 0 0 0 0 127 0" result="hardAlpha"/>
<feOffset dx="2" dy="2"/>
<feGaussianBlur stdDeviation="2"/>
<feComposite in2="hardAlpha" operator="out"/>
<feColorMatrix type="matrix" values="0 0 0 0 0 0 0 0 0 0 0 0 0 0 0 0 0 0 1 0"/>
<feBlend mode="normal" in2="BackgroundImageFix" result="effect1_dropShadow_191_6649"/>
<feBlend mode="normal" in="SourceGraphic" in2="effect1_dropShadow_191_6649" result="shape"/>
</filter>
</defs>
</svg>
